<?xml version="1.0" encoding="utf-8"?>
<svg id="master-artboard" viewBox="0 0 700 450" version="1.1" xmlns="http://www.w3.org/2000/svg" x="0px" y="0px" style="enable-background:new 0 0 1400 980;" width="700px" height="450px"><rect id="ee-background" x="0" y="0" width="700" height="450" style="fill: white; fill-opacity: 0; pointer-events: none;"/>

<linearGradient id="SVGID_1_" gradientUnits="userSpaceOnUse" x1="700" y1="980" x2="700" y2="-3.142668e-08">
	<stop offset="0" style="stop-color:#CAE5E9"/>
	<stop offset="1" style="stop-color:#98CED7"/>
</linearGradient>

<g transform="matrix(1, 0, 0, 1, -9.43231201171875, 3.14410400390625)">
	<g>
		<g>
			<path class="st1" d="M647.5,270.8c18.3-51.6-7.3-108.7-57.3-127.6c-23-8.7-47.1-7.7-68.3,0.9C517.9,116,499.6,91,472,80.5&#10;&#9;&#9;&#9;&#9;c-31.2-11.8-65-1.5-85.4,23.2c-14.2-18.4-33.3-33.1-56.2-41.8c-66.5-25.1-140.1,10.1-164.5,78.7c-0.9,2.6-1.7,5.1-2.4,7.7&#10;&#9;&#9;&#9;&#9;c-30.8-7.4-62.9,9.9-74.1,41.3c-9,25.4-1.8,52.9,16.1,70.4c-14.1,52.6,13.1,108.5,63.6,127.6c29.5,11.1,60.6,7.4,86-7.3&#10;&#9;&#9;&#9;&#9;c7.1,5.2,14.9,9.5,23.5,12.8C312.7,405.9,349,399,376,378c12,16.5,28.6,29.7,48.7,37.4c55.6,21,117.3-8.4,137.7-65.8&#10;&#9;&#9;&#9;&#9;c1.6-4.7,2.9-9.4,3.9-14.1C601.9,331.8,634.3,307.8,647.5,270.8z" style="fill: rgb(2, 158, 167);"/>
		</g>
	</g>
	<g>
		<g>
			<path class="st2" d="M647.5,260.3c18.3-51.6-7.3-108.7-57.3-127.6c-23-8.7-47.1-7.7-68.3,0.9c-3.9-28.1-22.3-53.1-49.9-63.5&#10;&#9;&#9;&#9;&#9;c-31.2-11.8-65-1.5-85.4,23.2c-14.2-18.4-33.3-33.1-56.2-41.8c-66.5-25.1-140.1,10.1-164.5,78.7c-0.9,2.6-1.7,5.1-2.4,7.7&#10;&#9;&#9;&#9;&#9;c-30.8-7.4-62.9,9.9-74.1,41.3c-9,25.4-1.8,52.9,16.1,70.4c-14.1,52.6,13.1,108.5,63.6,127.6c29.5,11.1,60.6,7.4,86-7.3&#10;&#9;&#9;&#9;&#9;c7.1,5.2,14.9,9.5,23.5,12.8c34.1,12.9,70.4,5.9,97.4-15.1c12,16.5,28.6,29.7,48.7,37.4c55.6,21,117.3-8.4,137.7-65.8&#10;&#9;&#9;&#9;&#9;c1.6-4.7,2.9-9.4,3.9-14.1C601.9,321.3,634.3,297.3,647.5,260.3z" style="fill: rgb(208, 237, 244);"/>
		</g>
	</g>
	<g>
		<path class="st3" d="M647.5,241.2c18.3-51.6-7.3-108.7-57.3-127.6c-23-8.7-47.1-7.7-68.3,0.9C517.9,86.4,499.6,61.4,472,51&#10;&#9;&#9;&#9;c-31.2-11.8-65-1.5-85.4,23.2c-14.2-18.4-33.3-33.1-56.2-41.8c-66.5-25.1-140.1,10.1-164.5,78.7c-0.9,2.6-1.7,5.1-2.4,7.7&#10;&#9;&#9;&#9;c-30.8-7.4-62.9,9.9-74.1,41.3c-9,25.4-1.8,52.9,16.1,70.4c-14.1,52.6,13.1,108.5,63.6,127.6c29.5,11.1,60.6,7.4,86-7.3&#10;&#9;&#9;&#9;c7.1,5.2,14.9,9.5,23.5,12.8c34.1,12.9,70.4,5.9,97.4-15.1c12,16.5,28.6,29.7,48.7,37.4c55.6,21,117.3-8.4,137.7-65.8&#10;&#9;&#9;&#9;c1.6-4.7,2.9-9.4,3.9-14.1C601.9,302.3,634.3,278.3,647.5,241.2z" style="fill: rgb(255, 255, 255);"/>
	</g>
</g>





</svg>