<?xml version="1.0" encoding="utf-8"?>
<svg id="master-artboard" viewBox="0 0 700 450" version="1.1" xmlns="http://www.w3.org/2000/svg" x="0px" y="0px" style="enable-background:new 0 0 1400 980;" width="700px" height="450px"><rect id="ee-background" x="0" y="0" width="700" height="450" style="fill: white; fill-opacity: 0; pointer-events: none;"/>

<linearGradient id="SVGID_1_" gradientUnits="userSpaceOnUse" x1="700" y1="980" x2="700" y2="-3.142668e-08">
	<stop offset="0" style="stop-color:#CAE5E9"/>
	<stop offset="1" style="stop-color:#98CED7"/>
</linearGradient>







<g transform="matrix(1, 0, 0, 1, -666.3861164240438, -3.170936860190892)">
	<path class="st1" d="M1306.2,280.3c24.1-57.3-8.3-121.3-72.5-142.9c-29.6-10-60.8-9-88.2,0.4c-6.7-10.5-17.3-19.1-30.9-23.6&#10;&#9;&#9;c-16.3-5.5-33.5-4.1-47.9,2.4c-13.7-27.1-39-49.5-72.6-60.8c-67.2-22.6-142.2,7.8-167.4,67.8c-0.4,0.9-0.6,1.8-1,2.8&#10;&#9;&#9;c-40.5-8.2-82.5,11.2-97.5,46.9c-13,31-1.7,64.7,25.4,84.6c-4.8,6.3-8.9,13-12,20.5c-20.9,49.8,7.2,105.3,62.9,124&#10;&#9;&#9;c34.9,11.7,72.3,6.2,100.6-11.8c7.5,5.9,16.2,10.8,26.1,14.1c32.4,10.9,67.7,2.8,90.3-18.2c13.7,14.2,31.5,25.6,52.5,32.6&#10;&#9;&#9;c67.2,22.6,142.2-7.8,167.4-67.8c1.5-3.6,2.8-7.2,3.9-10.8C1272.3,328.5,1294.7,307.7,1306.2,280.3z" style="fill: rgb(2, 158, 167);"/>
	<path class="st2" d="M1306.2,270.8c24.1-57.3-8.3-121.3-72.5-142.9c-29.6-10-60.8-9-88.2,0.4c-6.7-10.5-17.3-19.1-30.9-23.6&#10;&#9;&#9;c-16.3-5.5-33.5-4.1-47.9,2.4c-13.7-27.1-39-49.5-72.6-60.8c-67.2-22.6-142.2,7.8-167.4,67.8c-0.4,0.9-0.6,1.8-1,2.8&#10;&#9;&#9;c-40.5-8.2-82.5,11.2-97.5,46.9c-13,31-1.7,64.7,25.4,84.6c-4.8,6.3-8.9,13-12,20.5c-20.9,49.8,7.2,105.3,62.9,124&#10;&#9;&#9;c34.9,11.7,72.3,6.2,100.6-11.8c7.5,5.9,16.2,10.8,26.1,14.1c32.4,10.9,67.7,2.8,90.3-18.2c13.7,14.2,31.5,25.6,52.5,32.6&#10;&#9;&#9;c67.2,22.6,142.2-7.8,167.4-67.8c1.5-3.6,2.8-7.2,3.9-10.8C1272.3,319,1294.7,298.2,1306.2,270.8z" style="fill: rgb(208, 237, 244);"/>
	<path class="st4" d="M1306.2,251.7c24.1-57.3-8.3-121.3-72.5-142.9c-29.6-10-60.8-9-88.2,0.4c-6.7-10.5-17.3-19.1-30.9-23.6&#10;&#9;&#9;c-16.3-5.5-33.5-4.1-47.9,2.4c-13.7-27.1-39-49.5-72.6-60.8C926.9,4.7,851.9,35,826.6,95.1c-0.4,0.9-0.6,1.8-1,2.8&#10;&#9;&#9;c-40.5-8.2-82.5,11.2-97.5,46.9c-13,31-1.7,64.7,25.4,84.6c-4.8,6.3-8.9,13-12,20.5c-20.9,49.8,7.2,105.3,62.9,124&#10;&#9;&#9;c34.9,11.7,72.3,6.2,100.6-11.8c7.5,5.9,16.2,10.8,26.1,14.1c32.4,10.9,67.7,2.8,90.3-18.2c13.7,14.2,31.5,25.6,52.5,32.6&#10;&#9;&#9;c67.2,22.6,142.2-7.8,167.4-67.8c1.5-3.6,2.8-7.2,3.9-10.8C1272.3,299.9,1294.7,279.1,1306.2,251.7z" style="fill: rgb(250, 252, 249);"/>
</g></svg>