<?xml version="1.0" encoding="utf-8"?>
<svg id="master-artboard" viewBox="0 0 700 450" version="1.1" xmlns="http://www.w3.org/2000/svg" x="0px" y="0px" style="enable-background:new 0 0 1400 980;" width="700px" height="450px"><rect id="ee-background" x="0" y="0" width="700" height="450" style="fill: white; fill-opacity: 0; pointer-events: none;"/>

<linearGradient id="SVGID_1_" gradientUnits="userSpaceOnUse" x1="700" y1="980" x2="700" y2="-3.142668e-08">
	<stop offset="0" style="stop-color:#CAE5E9"/>
	<stop offset="1" style="stop-color:#98CED7"/>
</linearGradient>







<g transform="matrix(1, 0, 0, 1, -664.5900681140199, -516.4040707687775)">
	<path class="st1" d="M1266.3,743.9c5.5-10.4,8.4-21.5,8.4-32.9c0-29.3-19.5-56.7-51-71.5c-24.9-11.7-55.4-14.2-82.5-7&#10;&#9;&#9;c-33.4-36.9-87.1-59.3-143.8-59.3c-31.2,0-62.1,6.8-89.2,19.5c-18.2,8.6-34.2,19.5-47.7,32.7c-20.2,1-39.9,5.8-57.5,14.1&#10;&#9;&#9;c-40.3,19-65.4,54.1-65.4,91.7c0,37.7,25,72.8,65.4,91.7c7.6,3.6,15.9,6.6,24.7,8.9c23.4,59.7,91.7,100.6,169.8,100.6&#10;&#9;&#9;c31.2,0,62-6.7,89.2-19.5c7.9-3.7,15.4-7.9,22.6-12.7c36.3,11.5,78.5,8.9,112.6-7.1c40.3-18.9,65.4-54.1,65.4-91.7&#10;&#9;&#9;C1287.2,780.7,1280,761,1266.3,743.9L1266.3,743.9z M1266.3,743.9" style="fill: rgb(2, 158, 167);"/>
	<path class="st2" d="M1266.3,734.3c5.5-10.4,8.4-21.5,8.4-32.9c0-29.3-19.5-56.7-51-71.5c-24.9-11.7-55.4-14.2-82.5-7&#10;&#9;&#9;c-33.4-36.9-87.1-59.3-143.8-59.3c-31.2,0-62.1,6.8-89.2,19.5c-18.2,8.6-34.2,19.5-47.7,32.7c-20.2,1-39.9,5.8-57.5,14.1&#10;&#9;&#9;c-40.3,19-65.4,54.1-65.4,91.7c0,37.7,25,72.8,65.4,91.7c7.6,3.6,15.9,6.6,24.7,8.9c23.4,59.7,91.7,100.6,169.8,100.6&#10;&#9;&#9;c31.2,0,62-6.7,89.2-19.5c7.9-3.7,15.4-7.9,22.6-12.7c36.3,11.5,78.5,8.9,112.6-7.1c40.3-18.9,65.4-54.1,65.4-91.7&#10;&#9;&#9;C1287.2,771.1,1280,751.5,1266.3,734.3L1266.3,734.3z M1266.3,734.3" style="fill: rgb(208, 237, 244);"/>
	<path class="st4" d="M1266.3,715.3c5.5-10.4,8.4-21.5,8.4-32.9c0-29.3-19.5-56.7-51-71.5c-24.9-11.7-55.4-14.2-82.5-7&#10;&#9;&#9;c-33.4-36.9-87.1-59.3-143.8-59.3c-31.2,0-62.1,6.8-89.2,19.5c-18.2,8.6-34.2,19.5-47.7,32.7c-20.2,1-39.9,5.8-57.5,14.1&#10;&#9;&#9;c-40.3,19-65.4,54.1-65.4,91.7c0,37.7,25,72.8,65.4,91.7c7.6,3.6,15.9,6.6,24.7,8.9c23.4,59.7,91.7,100.6,169.8,100.6&#10;&#9;&#9;c31.2,0,62-6.7,89.2-19.5c7.9-3.7,15.4-7.9,22.6-12.7c36.3,11.5,78.5,8.9,112.6-7.1c40.3-18.9,65.4-54.1,65.4-91.7&#10;&#9;&#9;C1287.2,752,1280,732.4,1266.3,715.3L1266.3,715.3z M1266.3,715.3" style="fill: rgb(250, 252, 249);"/>
</g></svg>