<?xml version="1.0" encoding="utf-8"?>
<svg id="master-artboard" viewBox="0 0 700 450" version="1.1" xmlns="http://www.w3.org/2000/svg" x="0px" y="0px" style="enable-background:new 0 0 1400 980;" width="700px" height="450px"><rect id="ee-background" x="0" y="0" width="700" height="450" style="fill: white; fill-opacity: 0; pointer-events: none;"/>

<linearGradient id="SVGID_1_" gradientUnits="userSpaceOnUse" x1="700" y1="980" x2="700" y2="-3.142668e-08">
	<stop offset="0" style="stop-color:#CAE5E9"/>
	<stop offset="1" style="stop-color:#98CED7"/>
</linearGradient>







<g transform="matrix(1, 0, 0, 1, -19.432069965561595, -521.5942079954438)">
	<path class="st1" d="M557.2,672.5c-9,0-17.7,1.4-25.9,4c-19.8-58.9-73.6-101.2-136.9-101.2c-61.8,0-114.5,40.3-135.5,97&#10;&#9;&#9;c-11.4-9.6-25.9-15.4-41.8-15.4c-31.3,0-57.4,22.4-64.7,52.7c-2.5-0.3-5-0.5-7.5-0.5c-36.9,0-66.7,31.1-66.7,69.6&#10;&#9;&#9;c0,38.4,29.9,69.6,66.7,69.6c17,0,32.5-6.7,44.3-17.6c8,43.8,44.8,77,89.2,77c17.2,0,33.2-5.1,47-13.7c24.6,22.5,56.7,36.2,92,36.2&#10;&#9;&#9;c50.8,0,95.2-28.4,119.7-70.6c6.5,1.5,13.2,2.4,20.1,2.4c50.2,0,90.8-42.4,90.8-94.7C648,714.9,607.3,672.5,557.2,672.5z" style="fill: rgb(2, 158, 167);"/>
	<path class="st2" d="M557.2,663c-9,0-17.7,1.4-25.9,4c-19.8-58.9-73.6-101.2-136.9-101.2c-61.8,0-114.5,40.3-135.5,97&#10;&#9;&#9;c-11.4-9.6-25.9-15.4-41.8-15.4c-31.3,0-57.4,22.4-64.7,52.7c-2.5-0.3-5-0.5-7.5-0.5c-36.9,0-66.7,31.1-66.7,69.6&#10;&#9;&#9;c0,38.4,29.9,69.6,66.7,69.6c17,0,32.5-6.7,44.3-17.6c8,43.8,44.8,77,89.2,77c17.2,0,33.2-5.1,47-13.7c24.6,22.5,56.7,36.2,92,36.2&#10;&#9;&#9;c50.8,0,95.2-28.4,119.7-70.6c6.5,1.5,13.2,2.4,20.1,2.4c50.2,0,90.8-42.4,90.8-94.7C648,705.3,607.3,663,557.2,663z" style="fill: rgb(208, 237, 244);"/>
	<path class="st4" d="M557.2,643.9c-9,0-17.7,1.4-25.9,4c-19.8-58.9-73.6-101.2-136.9-101.2c-61.8,0-114.5,40.3-135.5,97&#10;&#9;&#9;c-11.4-9.6-25.9-15.4-41.8-15.4c-31.3,0-57.4,22.4-64.7,52.7c-2.5-0.3-5-0.5-7.5-0.5c-36.9,0-66.7,31.1-66.7,69.6&#10;&#9;&#9;c0,38.4,29.9,69.6,66.7,69.6c17,0,32.5-6.7,44.3-17.6c8,43.8,44.8,77,89.2,77c17.2,0,33.2-5.1,47-13.7c24.6,22.5,56.7,36.2,92,36.2&#10;&#9;&#9;c50.8,0,95.2-28.4,119.7-70.6c6.5,1.5,13.2,2.4,20.1,2.4c50.2,0,90.8-42.4,90.8-94.7C648,686.3,607.3,643.9,557.2,643.9z" style="fill: rgb(250, 252, 249);"/>
</g></svg>